<svg xmlns="http://www.w3.org/2000/svg" xmlns:xlink="http://www.w3.org/1999/xlink" viewBox="0 0 108 93">
  <defs>
    <linearGradient id="image-empty-state-c" x1="50%" x2="50%" y1="0%" y2="100%">
      <stop offset="0%" stop-color="#F3F4F5"/>
      <stop offset="100%" stop-color="#D7D9DD"/>
    </linearGradient>
    <path id="image-empty-state-b" d="M4.334 6.6h81v57h-81z"/>
    <filter id="image-empty-state-a" width="116%" height="122.8%" x="-8%" y="-9.6%" filterUnits="objectBoundingBox">
      <feOffset dy="1" in="SourceAlpha" result="shadowOffsetOuter1"/>
      <feGaussianBlur in="shadowOffsetOuter1" result="shadowBlurOuter1" stdDeviation="2"/>
      <feColorMatrix in="shadowBlurOuter1" values="0 0 0 0 0   0 0 0 0 0   0 0 0 0 0  0 0 0 0.0856643357 0"/>
    </filter>
    <linearGradient id="image-empty-state-f" x1="50%" x2="50%" y1="0%" y2="100%">
      <stop offset="0%" stop-color="#F3F4F5"/>
      <stop offset="100%" stop-color="#D7D9DD"/>
    </linearGradient>
    <path id="image-empty-state-e" d="M0 0h70v49H0z"/>
    <filter id="image-empty-state-d" width="132.9%" height="146.9%" x="-16.4%" y="-21.4%" filterUnits="objectBoundingBox">
      <feMorphology in="SourceAlpha" operator="dilate" radius="5" result="shadowSpreadOuter1"/>
      <feOffset dy="1" in="shadowSpreadOuter1" result="shadowOffsetOuter1"/>
      <feGaussianBlur in="shadowOffsetOuter1" result="shadowBlurOuter1" stdDeviation="2"/>
      <feComposite in="shadowBlurOuter1" in2="SourceAlpha" operator="out" result="shadowBlurOuter1"/>
      <feColorMatrix in="shadowBlurOuter1" values="0 0 0 0 0   0 0 0 0 0   0 0 0 0 0  0 0 0 0.0856643357 0"/>
    </filter>
  </defs>
  <g fill="none" fill-rule="evenodd" transform="translate(4.666)">
    <g transform="translate(0 16.4)">
      <g transform="rotate(-10 44.834 35.1)">
        <use fill="#000" filter="url(#image-empty-state-a)" xlink:href="#image-empty-state-b"/>
        <use fill="url(#image-empty-state-c)" xlink:href="#image-empty-state-b"/>
      </g>
      <g transform="translate(11.334 10.6)">
        <use fill="#000" filter="url(#image-empty-state-d)" xlink:href="#image-empty-state-e"/>
        <path fill="url(#image-empty-state-f)" stroke="#FFF" stroke-width="5" d="M-2.5-2.5h75v54h-75z"/>
        <circle cx="43.5" cy="14.5" r="7.5" fill="#B1B5BE"/>
        <path fill="#CDCFD4" d="M33.677 40.768L51.66 26 70 40.768V49H29z"/>
        <path fill="#B1B5BE" d="M0 34l19.337-11.5L44 49H0z"/>
      </g>
    </g>
    <g transform="translate(65.334)">
      <circle cx="19" cy="19" r="19" fill="#00B3B0"/>
      <path fill="#FFF" d="M19 26.917l.071-.002c.022 0 .044-.002.066-.004h.005l.137-.019c.05-.009.098-.02.147-.033l.118-.038a1.565 1.565 0 0 0 .426-.236l.013-.01c.042-.034.083-.07.122-.108l.015-.014 4.75-4.75a1.583 1.583 0 0 0-2.09-2.371l-.15.132-2.047 2.045V11.083a1.583 1.583 0 0 0-3.156-.184l-.01.184-.001 10.426-2.046-2.045a1.584 1.584 0 0 0-2.09-.132l-.15.132a1.584 1.584 0 0 0-.131 2.09l.131.149 4.75 4.75c.035.034.071.067.109.099l-.109-.1a1.597 1.597 0 0 0 .675.401 1.575 1.575 0 0 0 .426.064H19z"/>
    </g>
  </g>
</svg>
