<?xml version="1.0" encoding="UTF-8"?>
<svg width="403px" height="110px" viewBox="0 0 403 110" version="1.1" xmlns="http://www.w3.org/2000/svg" xmlns:xlink="http://www.w3.org/1999/xlink">
    <title>Group 4</title>
    <g id="Blok-ink-SB-Design-system-v1" stroke="none" stroke-width="1" fill="none" fill-rule="evenodd">
        <g id="00-Cover" transform="translate(-328.000000, -262.000000)">
            <g id="Group-4" transform="translate(328.000000, 262.000000)">
                <g id="Group-2">
                    <g id="Group">
                        <rect id="Rectangle" fill="#F5F5F5" x="15.7894737" y="44.5238095" width="84.2105263" height="65.4761905" rx="10"></rect>
                        <path d="M74.2105263,0 C79.7333738,-1.01453063e-15 84.2105263,4.4771525 84.2105263,10 L84.2105263,73.8095238 C84.2105263,79.3323713 79.7333738,83.8095238 74.2105263,83.8095238 L28.747,83.809 L15.7894737,97.5582524 L15.789,83.809 L10,83.8095238 C4.4771525,83.8095238 -1.10000309e-15,79.3323713 0,73.8095238 L0,10 C-2.45271059e-15,4.4771525 4.4771525,1.01453063e-15 10,0 L74.2105263,0 Z" id="Combined-Shape" fill="#00B3B0"></path>
                    </g>
                    <path d="M61.8864338,58.7024163 C61.1261582,60.1292921 59.9857448,61.3183552 58.6172488,62.1903349 C57.1727251,63.1415854 55.5761464,64.0135651 53.7514849,64.4099195 C51.9268235,64.8855447 49.9501069,65.2818991 47.8973628,65.2818991 L20.9836066,65.2818991 L20.9836066,20.8902077 L51.5466857,20.8902077 C53.0672369,20.8902077 54.3597054,21.2072912 55.5761464,21.9207291 C56.7165598,22.5548961 57.7809456,23.4268758 58.6172488,24.4573972 C60.3205272,26.6230837 61.2359524,29.3461508 61.2021858,32.1466723 C61.2021858,34.2077151 60.6699929,36.1894871 59.6816346,38.0919881 C58.6569553,40.0055964 57.0527183,41.5110024 55.119981,42.3726155 C57.5528629,43.0860534 59.4535519,44.3543875 60.8980756,46.1776176 C62.2665716,48.0801187 62.9508197,50.5375159 62.9508197,53.6290801 C62.9508197,55.6108521 62.5706819,57.2755405 61.8104063,58.7024163 L61.8864338,58.7024163 Z" id="Shape-path" fill="#FFFFFF"></path>
                </g>
                <g id="blok.ink-Storyblok’s" transform="translate(128.831055, 10.611307)" fill-rule="nonzero">
                    <path d="M18.0019531,44.0664062 C21.7591146,44.0664062 24.6855469,42.6928711 26.78125,39.9458008 C28.8769531,37.1987305 29.9248047,33.3707682 29.9248047,28.4619141 L29.9248047,28.4619141 L29.9248047,28.0087891 C29.9248047,23.0244141 28.862793,19.1586914 26.7387695,16.4116211 C24.6147461,13.6645508 21.6835938,12.2910156 17.9453125,12.2910156 C14.8678385,12.2910156 12.3850911,13.3955078 10.4970703,15.6044922 L10.4970703,15.6044922 L10.4970703,0 L2.3125,0 L2.3125,43.5 L9.67578125,43.5 L10.0439453,40.2431641 C12.0263672,42.7919922 14.6790365,44.0664062 18.0019531,44.0664062 Z M15.9345703,37.4677734 C13.3102214,37.4677734 11.4977214,36.3916016 10.4970703,34.2392578 L10.4970703,34.2392578 L10.4970703,22.1464844 C11.4788411,20.0130208 13.2724609,18.9462891 15.8779297,18.9462891 C17.8225911,18.9462891 19.2858073,19.6590169 20.2675781,21.0844727 C21.249349,22.5099284 21.7402344,24.7708333 21.7402344,27.8671875 C21.7402344,30.4160156 21.5419922,32.3134766 21.1455078,33.5595703 C20.3147786,36.1650391 18.5777995,37.4677734 15.9345703,37.4677734 Z M43.6035156,43.5 L43.6035156,0 L35.390625,0 L35.390625,43.5 L43.6035156,43.5 Z M63.5976562,44.0664062 C68.015625,44.0664062 71.5367839,42.6456706 74.1611328,39.8041992 C76.7854818,36.9627279 78.0976562,33.1914062 78.0976562,28.4902344 L78.0976562,28.4902344 L78.0410156,26.3945312 C77.7389323,22.0520833 76.2804362,18.6158854 73.6655273,16.0859375 C71.0506185,13.5559896 67.6757812,12.2910156 63.5410156,12.2910156 C60.6334635,12.2910156 58.0799154,12.9423828 55.8803711,14.2451172 C53.6808268,15.5478516 51.9957682,17.3886719 50.8251953,19.7675781 C49.6546224,22.1464844 49.0693359,24.8557943 49.0693359,27.8955078 L49.0693359,27.8955078 L49.0693359,28.2636719 C49.0693359,33.1347656 50.3862305,36.9863281 53.0200195,39.8183594 C55.6538086,42.6503906 59.1796875,44.0664062 63.5976562,44.0664062 Z M63.5976562,37.4677734 C61.5585938,37.4677734 59.9915365,36.6984049 58.8964844,35.159668 C57.8014323,33.620931 57.2539062,31.3977865 57.2539062,28.4902344 C57.2539062,25.2239583 57.8014323,22.8120117 58.8964844,21.2543945 C59.9915365,19.6967773 61.5397135,18.9179688 63.5410156,18.9179688 C65.5611979,18.9179688 67.1282552,19.7014974 68.2421875,21.2685547 C69.3561198,22.835612 69.9130859,25.0445964 69.9130859,27.8955078 C69.9130859,31.2373047 69.3561198,33.6681315 68.2421875,35.1879883 C67.1282552,36.7078451 65.5800781,37.4677734 63.5976562,37.4677734 Z M91.3232422,43.5 L91.3232422,34.1542969 L94.2685547,31.2089844 L102.141602,43.5 L111.543945,43.5 L99.5078125,25.6298828 L110.581055,12.8574219 L100.753906,12.8574219 L92.9091797,22.0615234 L91.3232422,24.1005859 L91.3232422,0 L83.1386719,0 L83.1386719,43.5 L91.3232422,43.5 Z M119.162109,43.8115234 C120.521484,43.8115234 121.635417,43.410319 122.503906,42.6079102 C123.372396,41.8055013 123.806641,40.7623698 123.806641,39.4785156 C123.806641,38.1757812 123.367676,37.1184896 122.489746,36.3066406 C121.611816,35.4947917 120.502604,35.0888672 119.162109,35.0888672 C117.840495,35.0888672 116.740723,35.4947917 115.862793,36.3066406 C114.984863,37.1184896 114.545898,38.1757812 114.545898,39.4785156 C114.545898,40.7623698 114.980143,41.8055013 115.848633,42.6079102 C116.717122,43.410319 117.821615,43.8115234 119.162109,43.8115234 Z M135.50293,9.17578125 C136.881185,9.17578125 137.990397,8.77929688 138.830566,7.98632812 C139.670736,7.19335938 140.09082,6.17382812 140.09082,4.92773438 C140.09082,3.70052083 139.675456,2.69042969 138.844727,1.89746094 C138.013997,1.10449219 136.900065,0.708007812 135.50293,0.708007812 C134.086914,0.708007812 132.968262,1.10449219 132.146973,1.89746094 C131.325684,2.69042969 130.915039,3.70052083 130.915039,4.92773438 C130.915039,6.17382812 131.335124,7.19335938 132.175293,7.98632812 C133.015462,8.77929688 134.124674,9.17578125 135.50293,9.17578125 Z M139.609375,43.5 L139.609375,12.8574219 L131.396484,12.8574219 L131.396484,43.5 L139.609375,43.5 Z M154.364258,43.5 L154.364258,21.8916016 C155.515951,19.9280599 157.24349,18.9462891 159.546875,18.9462891 C161.302734,18.9462891 162.558268,19.3380534 163.313477,20.121582 C164.068685,20.9051107 164.446289,22.1653646 164.446289,23.9023438 L164.446289,23.9023438 L164.446289,43.5 L172.630859,43.5 L172.630859,23.7041016 C172.593099,19.9091797 171.78125,17.0582682 170.195312,15.1513672 C168.609375,13.2444661 166.192708,12.2910156 162.945312,12.2910156 C159.263672,12.2910156 156.327799,13.6598307 154.137695,16.3974609 L154.137695,16.3974609 L153.882812,12.8574219 L146.179688,12.8574219 L146.179688,43.5 L154.364258,43.5 Z M187.017578,43.5 L187.017578,34.1542969 L189.962891,31.2089844 L197.835938,43.5 L207.238281,43.5 L195.202148,25.6298828 L206.275391,12.8574219 L196.448242,12.8574219 L188.603516,22.0615234 L187.017578,24.1005859 L187.017578,0 L178.833008,0 L178.833008,43.5 L187.017578,43.5 Z" id="blok.ink" fill="#1B243F"></path>
                    <path d="M6.40136719,78.7246094 C8.19075521,78.7246094 9.60766602,78.3221842 10.6520996,77.517334 C11.6965332,76.7124837 12.21875,75.6287435 12.21875,74.2661133 C12.21875,73.4275716 12.0390625,72.6957194 11.6796875,72.0705566 C11.3203125,71.4453939 10.7550456,70.8913574 9.98388672,70.4084473 C9.21272786,69.9255371 8.19075521,69.4950358 6.91796875,69.1169434 C5.64518229,68.7388509 4.73177083,68.349528 4.17773438,67.9489746 C3.62369792,67.5484212 3.34667969,67.0486654 3.34667969,66.449707 C3.34667969,65.738444 3.60310872,65.1844076 4.1159668,64.7875977 C4.62882487,64.3907878 5.34944661,64.1923828 6.27783203,64.1923828 C7.27360026,64.1923828 8.03914388,64.4338379 8.57446289,64.916748 C9.1097819,65.3996582 9.37744141,66.0678711 9.37744141,66.9213867 L9.37744141,66.9213867 L12.2075195,66.9213867 C12.2075195,65.9780273 11.9529622,65.1188965 11.4438477,64.3439941 C10.9347331,63.5690918 10.2347005,62.9720052 9.34375,62.5527344 C8.45279948,62.1334635 7.4383138,61.9238281 6.30029297,61.9238281 C4.58577474,61.9238281 3.19132487,62.3505859 2.11694336,63.2041016 C1.04256185,64.0576172 0.505371094,65.1432292 0.505371094,66.4609375 C0.505371094,67.9658203 1.25032552,69.1861979 2.74023438,70.1220703 C3.51888021,70.608724 4.56705729,71.0504557 5.88476562,71.4472656 C7.20247396,71.8440755 8.11401367,72.2371419 8.61938477,72.6264648 C9.12475586,73.0157878 9.37744141,73.5698242 9.37744141,74.2885742 C9.37744141,74.9474284 9.12849935,75.4771322 8.63061523,75.8776855 C8.13273112,76.2782389 7.38964844,76.4785156 6.40136719,76.4785156 C5.25585938,76.4785156 4.37613932,76.2239583 3.76220703,75.7148438 C3.14827474,75.2057292 2.84130859,74.4869792 2.84130859,73.5585938 L2.84130859,73.5585938 L0,73.5585938 C0,74.5843099 0.275146484,75.4827474 0.825439453,76.2539062 C1.37573242,77.0250651 2.14689128,77.6296387 3.13891602,78.067627 C4.13094076,78.5056152 5.21842448,78.7246094 6.40136719,78.7246094 Z M18.2832031,78.7246094 C18.8597005,78.7246094 19.4586589,78.6385091 20.0800781,78.4663086 L20.0800781,78.4663086 L20.0800781,76.3549805 C19.758138,76.4298503 19.4399414,76.4672852 19.1254883,76.4672852 C18.6538086,76.4672852 18.3262533,76.3643392 18.1428223,76.1584473 C17.9593913,75.9525553 17.8676758,75.617513 17.8676758,75.1533203 L17.8676758,75.1533203 L17.8676758,68.3701172 L20.0126953,68.3701172 L20.0126953,66.3486328 L17.8676758,66.3486328 L17.8676758,63.3950195 L15.1386719,63.3950195 L15.1386719,66.3486328 L13.1396484,66.3486328 L13.1396484,68.3701172 L15.1386719,68.3701172 L15.1386719,75.2543945 C15.1386719,77.5678711 16.186849,78.7246094 18.2832031,78.7246094 Z M27.2451172,78.7246094 C28.3681641,78.7246094 29.3583171,78.4663086 30.2155762,77.949707 C31.0728353,77.4331055 31.7316895,76.703125 32.1921387,75.7597656 C32.6525879,74.8164062 32.8828125,73.7457682 32.8828125,72.5478516 L32.8828125,72.5478516 L32.871582,71.9077148 C32.7892253,70.1632487 32.2370605,68.7631836 31.2150879,67.7075195 C30.1931152,66.6518555 28.8623047,66.1240234 27.2226562,66.1240234 C26.1145833,66.1240234 25.1337891,66.3804525 24.2802734,66.8933105 C23.4267578,67.4061686 22.7641602,68.1398926 22.2924805,69.0944824 C21.8208008,70.0490723 21.5849609,71.121582 21.5849609,72.3120117 L21.5849609,72.3120117 L21.5849609,72.4467773 C21.5849609,74.3484701 22.0996908,75.8701986 23.1291504,77.0119629 C24.15861,78.1537272 25.530599,78.7246094 27.2451172,78.7246094 Z M27.2451172,76.5458984 C26.3242188,76.5458984 25.6054688,76.1921387 25.0888672,75.4846191 C24.5722656,74.7770996 24.3139648,73.7981771 24.3139648,72.5478516 C24.3139648,71.1402995 24.5760091,70.0827637 25.1000977,69.3752441 C25.6241862,68.6677246 26.3317057,68.3139648 27.2226562,68.3139648 C28.1285807,68.3139648 28.845459,68.6733398 29.373291,69.3920898 C29.901123,70.1108398 30.1650391,71.0841471 30.1650391,72.3120117 C30.1650391,73.6971029 29.90861,74.7490234 29.395752,75.4677734 C28.8828939,76.1865234 28.1660156,76.5458984 27.2451172,76.5458984 Z M37.9140625,78.5 L37.9140625,70.1894531 C38.3483073,69.2311198 39.1905924,68.7519531 40.440918,68.7519531 C40.8227539,68.7519531 41.1933594,68.781901 41.5527344,68.8417969 L41.5527344,68.8417969 L41.5639648,66.28125 C41.3094076,66.1764323 40.9874674,66.1240234 40.5981445,66.1240234 C39.4301758,66.1240234 38.5167643,66.6518555 37.8579102,67.7075195 L37.8579102,67.7075195 L37.7905273,66.3486328 L35.1850586,66.3486328 L35.1850586,78.5 L37.9140625,78.5 Z M44.3041992,83.4077148 C46.0786133,83.4077148 47.3364258,82.3857422 48.0776367,80.3417969 L48.0776367,80.3417969 L52.9067383,66.3486328 L49.9980469,66.3486328 L47.5273438,74.5917969 L44.9555664,66.3486328 L42.0131836,66.3486328 L46.2807617,78.4438477 L45.8876953,79.4882812 C45.6855469,80.0797526 45.4104004,80.5008952 45.0622559,80.751709 C44.7141113,81.0025228 44.195638,81.1279297 43.5068359,81.1279297 L43.5068359,81.1279297 L42.9902344,81.0942383 L42.9902344,83.2055664 C43.469401,83.340332 43.9073893,83.4077148 44.3041992,83.4077148 Z M60.3974609,78.7246094 C61.8723958,78.7246094 63.0310059,78.1668294 63.873291,77.0512695 C64.7155762,75.9357096 65.1367188,74.4345703 65.1367188,72.5478516 L65.1367188,72.5478516 L65.1367188,72.390625 C65.1367188,70.4140625 64.7137044,68.8754883 63.8676758,67.7749023 C63.0216471,66.6743164 61.8574219,66.1240234 60.375,66.1240234 C59.0423177,66.1240234 57.9829102,66.5882161 57.1967773,67.5166016 L57.1967773,67.5166016 L57.1967773,61.25 L54.4677734,61.25 L54.4677734,78.5 L56.9384766,78.5 L57.0732422,77.1860352 C57.866862,78.2117513 58.9749349,78.7246094 60.3974609,78.7246094 Z M59.7124023,76.5009766 C58.5219727,76.5009766 57.683431,75.9731445 57.1967773,74.9174805 L57.1967773,74.9174805 L57.1967773,69.9086914 C57.675944,68.8754883 58.5069987,68.3588867 59.6899414,68.3588867 C60.5734049,68.3588867 61.2472331,68.6883138 61.7114258,69.347168 C62.1756185,70.0060221 62.4077148,70.9943034 62.4077148,72.3120117 L62.4077148,72.3120117 L62.4077148,72.6601562 C62.3927409,73.9479167 62.1531576,74.9099935 61.6889648,75.5463867 C61.2247721,76.1827799 60.565918,76.5009766 59.7124023,76.5009766 Z M70.3251953,78.5 L70.3251953,61.25 L67.5961914,61.25 L67.5961914,78.5 L70.3251953,78.5 Z M78.4448242,78.7246094 C79.5678711,78.7246094 80.5580241,78.4663086 81.4152832,77.949707 C82.2725423,77.4331055 82.9313965,76.703125 83.3918457,75.7597656 C83.8522949,74.8164062 84.0825195,73.7457682 84.0825195,72.5478516 L84.0825195,72.5478516 L84.0712891,71.9077148 C83.9889323,70.1632487 83.4367676,68.7631836 82.4147949,67.7075195 C81.3928223,66.6518555 80.0620117,66.1240234 78.4223633,66.1240234 C77.3142904,66.1240234 76.3334961,66.3804525 75.4799805,66.8933105 C74.6264648,67.4061686 73.9638672,68.1398926 73.4921875,69.0944824 C73.0205078,70.0490723 72.784668,71.121582 72.784668,72.3120117 L72.784668,72.3120117 L72.784668,72.4467773 C72.784668,74.3484701 73.2993978,75.8701986 74.3288574,77.0119629 C75.3583171,78.1537272 76.730306,78.7246094 78.4448242,78.7246094 Z M78.4448242,76.5458984 C77.5239258,76.5458984 76.8051758,76.1921387 76.2885742,75.4846191 C75.7719727,74.7770996 75.5136719,73.7981771 75.5136719,72.5478516 C75.5136719,71.1402995 75.7757161,70.0827637 76.2998047,69.3752441 C76.8238932,68.6677246 77.5314128,68.3139648 78.4223633,68.3139648 C79.3282878,68.3139648 80.045166,68.6733398 80.572998,69.3920898 C81.1008301,70.1108398 81.3647461,71.0841471 81.3647461,72.3120117 C81.3647461,73.6971029 81.1083171,74.7490234 80.595459,75.4677734 C80.0826009,76.1865234 79.3657227,76.5458984 78.4448242,76.5458984 Z M89.125,78.5 L89.125,74.5356445 L90.3378906,73.2890625 L93.9428711,78.5 L97.0986328,78.5 L92.1010742,71.4135742 L96.6157227,66.3486328 L93.3364258,66.3486328 L89.9785156,70.1333008 L89.125,71.2001953 L89.125,61.25 L86.3959961,61.25 L86.3959961,78.5 L89.125,78.5 Z M98.9628906,67 C99.539388,66.5358073 100.02417,65.9125163 100.417236,65.130127 C100.810303,64.3477376 101.006836,63.5709635 101.006836,62.7998047 L101.006836,62.7998047 L101.006836,61.25 L98.6147461,61.25 L98.6147461,63.0244141 C98.5922852,64.117513 98.2441406,65.1544596 97.5703125,66.1352539 L97.5703125,66.1352539 L98.9628906,67 Z M107.958496,78.7246094 C109.425944,78.7246094 110.61263,78.3858236 111.518555,77.708252 C112.424479,77.0306803 112.877441,76.1453451 112.877441,75.0522461 C112.877441,74.4008789 112.729574,73.8468424 112.433838,73.3901367 C112.138102,72.933431 111.68514,72.5422363 111.074951,72.2165527 C110.464762,71.8908691 109.624349,71.6101074 108.553711,71.3742676 C107.483073,71.1384277 106.77181,70.9044596 106.419922,70.6723633 C106.068034,70.4402669 105.89209,70.1145833 105.89209,69.6953125 C105.89209,69.2311198 106.081136,68.8605143 106.459229,68.5834961 C106.837321,68.3064779 107.325846,68.1679688 107.924805,68.1679688 C108.568685,68.1679688 109.085286,68.342041 109.474609,68.6901855 C109.863932,69.0383301 110.058594,69.4744466 110.058594,69.9985352 L110.058594,69.9985352 L112.787598,69.9985352 C112.787598,68.8530273 112.340251,67.9208984 111.445557,67.2021484 C110.550863,66.4833984 109.377279,66.1240234 107.924805,66.1240234 C106.562174,66.1240234 105.439128,66.4759115 104.555664,67.1796875 C103.672201,67.8834635 103.230469,68.7594401 103.230469,69.8076172 C103.230469,71.0579427 103.911784,72.0125326 105.274414,72.6713867 C105.895833,72.9708659 106.670736,73.2179362 107.599121,73.4125977 C108.527507,73.6072591 109.191976,73.8318685 109.592529,74.0864258 C109.993083,74.3409831 110.193359,74.7115885 110.193359,75.1982422 C110.193359,75.639974 110.006185,75.9974772 109.631836,76.270752 C109.257487,76.5440267 108.710938,76.6806641 107.992188,76.6806641 C107.250977,76.6806641 106.655762,76.5065918 106.206543,76.1584473 C105.757324,75.8103027 105.513997,75.3142904 105.476562,74.6704102 L105.476562,74.6704102 L102.826172,74.6704102 C102.826172,75.3966471 103.043294,76.0742188 103.477539,76.703125 C103.911784,77.3320312 104.518229,77.8261719 105.296875,78.1855469 C106.075521,78.5449219 106.962728,78.7246094 107.958496,78.7246094 Z M125.949707,78.5 C127.424642,78.5 128.732992,78.1818034 129.874756,77.5454102 C131.01652,76.9090169 131.89624,76.0030924 132.513916,74.8276367 C133.131592,73.652181 133.44043,72.2895508 133.44043,70.7397461 L133.44043,70.7397461 L133.44043,69.9199219 C133.44043,68.3925781 133.133464,67.0374349 132.519531,65.8544922 C131.905599,64.6715495 131.038981,63.758138 129.919678,63.1142578 C128.800374,62.4703776 127.518229,62.1484375 126.073242,62.1484375 L126.073242,62.1484375 L121.244141,62.1484375 L121.244141,78.5 L125.949707,78.5 Z M125.938477,76.2314453 L124.085449,76.2314453 L124.085449,64.4394531 L126.073242,64.4394531 C127.54069,64.4394531 128.659993,64.9073893 129.431152,65.8432617 C130.202311,66.7791341 130.587891,68.1342773 130.587891,69.9086914 L130.587891,69.9086914 L130.587891,70.8183594 C130.572917,72.5628255 130.166748,73.901123 129.369385,74.833252 C128.572021,75.7653809 127.428385,76.2314453 125.938477,76.2314453 L125.938477,76.2314453 Z M141.35791,78.7246094 C142.368652,78.7246094 143.280192,78.5243327 144.092529,78.1237793 C144.904867,77.7232259 145.554362,77.1598307 146.041016,76.4335938 L146.041016,76.4335938 L144.569824,75.0297852 C143.783691,76.0405273 142.765462,76.5458984 141.515137,76.5458984 C140.624186,76.5458984 139.884847,76.2539062 139.297119,75.6699219 C138.709391,75.0859375 138.374349,74.2923177 138.291992,73.2890625 L138.291992,73.2890625 L146.231934,73.2890625 L146.231934,72.1884766 C146.231934,70.2568359 145.780843,68.7631836 144.878662,67.7075195 C143.976481,66.6518555 142.698079,66.1240234 141.043457,66.1240234 C140.002767,66.1240234 139.059408,66.3898112 138.213379,66.9213867 C137.36735,67.4529622 136.710368,68.1960449 136.242432,69.1506348 C135.774495,70.1052246 135.540527,71.1889648 135.540527,72.4018555 L135.540527,72.4018555 L135.540527,72.7387695 C135.540527,74.5506185 136.077718,76.0012207 137.1521,77.0905762 C138.226481,78.1799316 139.628418,78.7246094 141.35791,78.7246094 Z M143.536621,71.2900391 L138.336914,71.2900391 C138.464193,70.3541667 138.758057,69.6241862 139.218506,69.1000977 C139.678955,68.5760091 140.283529,68.3139648 141.032227,68.3139648 C141.788411,68.3139648 142.379883,68.5479329 142.806641,69.0158691 C143.233398,69.4838053 143.476725,70.1744792 143.536621,71.0878906 L143.536621,71.0878906 L143.536621,71.2900391 Z M152.925293,78.7246094 C154.392741,78.7246094 155.579427,78.3858236 156.485352,77.708252 C157.391276,77.0306803 157.844238,76.1453451 157.844238,75.0522461 C157.844238,74.4008789 157.69637,73.8468424 157.400635,73.3901367 C157.104899,72.933431 156.651937,72.5422363 156.041748,72.2165527 C155.431559,71.8908691 154.591146,71.6101074 153.520508,71.3742676 C152.44987,71.1384277 151.738607,70.9044596 151.386719,70.6723633 C151.034831,70.4402669 150.858887,70.1145833 150.858887,69.6953125 C150.858887,69.2311198 151.047933,68.8605143 151.426025,68.5834961 C151.804118,68.3064779 152.292643,68.1679688 152.891602,68.1679688 C153.535482,68.1679688 154.052083,68.342041 154.441406,68.6901855 C154.830729,69.0383301 155.025391,69.4744466 155.025391,69.9985352 L155.025391,69.9985352 L157.754395,69.9985352 C157.754395,68.8530273 157.307048,67.9208984 156.412354,67.2021484 C155.51766,66.4833984 154.344076,66.1240234 152.891602,66.1240234 C151.528971,66.1240234 150.405924,66.4759115 149.522461,67.1796875 C148.638997,67.8834635 148.197266,68.7594401 148.197266,69.8076172 C148.197266,71.0579427 148.878581,72.0125326 150.241211,72.6713867 C150.86263,72.9708659 151.637533,73.2179362 152.565918,73.4125977 C153.494303,73.6072591 154.158773,73.8318685 154.559326,74.0864258 C154.95988,74.3409831 155.160156,74.7115885 155.160156,75.1982422 C155.160156,75.639974 154.972982,75.9974772 154.598633,76.270752 C154.224284,76.5440267 153.677734,76.6806641 152.958984,76.6806641 C152.217773,76.6806641 151.622559,76.5065918 151.17334,76.1584473 C150.724121,75.8103027 150.480794,75.3142904 150.443359,74.6704102 L150.443359,74.6704102 L147.792969,74.6704102 C147.792969,75.3966471 148.010091,76.0742188 148.444336,76.703125 C148.878581,77.3320312 149.485026,77.8261719 150.263672,78.1855469 C151.042318,78.5449219 151.929525,78.7246094 152.925293,78.7246094 Z M161.763672,64.6303711 C162.257812,64.6303711 162.639648,64.4937337 162.90918,64.220459 C163.178711,63.9471842 163.313477,63.6046549 163.313477,63.1928711 C163.313477,62.7736003 163.178711,62.4254557 162.90918,62.1484375 C162.639648,61.8714193 162.257812,61.7329102 161.763672,61.7329102 C161.269531,61.7329102 160.889567,61.8714193 160.623779,62.1484375 C160.357992,62.4254557 160.225098,62.7736003 160.225098,63.1928711 C160.225098,63.6046549 160.357992,63.9471842 160.623779,64.220459 C160.889567,64.4937337 161.269531,64.6303711 161.763672,64.6303711 Z M163.122559,78.5 L163.122559,66.3486328 L160.393555,66.3486328 L160.393555,78.5 L163.122559,78.5 Z M170.82666,83.2841797 C172.51123,83.2841797 173.849528,82.8237305 174.841553,81.902832 C175.833577,80.9819336 176.32959,79.7241211 176.32959,78.1293945 L176.32959,78.1293945 L176.32959,66.3486328 L173.870117,66.3486328 L173.746582,67.5727539 C172.952962,66.6069336 171.863607,66.1240234 170.478516,66.1240234 C169.011068,66.1240234 167.83374,66.6874186 166.946533,67.814209 C166.059326,68.9409993 165.615723,70.4477539 165.615723,72.3344727 C165.615723,74.3334961 166.066813,75.8982747 166.968994,77.0288086 C167.871175,78.1593424 169.033529,78.7246094 170.456055,78.7246094 C171.766276,78.7246094 172.814453,78.2866211 173.600586,77.4106445 L173.600586,77.4106445 L173.600586,78.2304688 C173.600586,79.1813151 173.338542,79.9019368 172.814453,80.392334 C172.290365,80.8827311 171.575358,81.1279297 170.669434,81.1279297 C169.441569,81.1279297 168.408366,80.6300456 167.569824,79.6342773 L167.569824,79.6342773 L166.27832,81.2739258 C166.720052,81.8728841 167.365804,82.357666 168.215576,82.7282715 C169.065348,83.098877 169.93571,83.2841797 170.82666,83.2841797 Z M171.152344,76.5009766 C170.26888,76.5009766 169.578206,76.1509603 169.080322,75.4509277 C168.582438,74.7508952 168.333496,73.7906901 168.333496,72.5703125 C168.333496,71.1852214 168.582438,70.1370443 169.080322,69.4257812 C169.578206,68.7145182 170.276367,68.3588867 171.174805,68.3588867 C172.275391,68.3588867 173.083984,68.8193359 173.600586,69.7402344 L173.600586,69.7402344 L173.600586,75.0859375 C173.06901,76.0292969 172.25293,76.5009766 171.152344,76.5009766 Z M181.821289,78.5 L181.821289,69.8525391 C182.360352,68.8567708 183.180176,68.3588867 184.280762,68.3588867 C185.036947,68.3588867 185.581624,68.5441895 185.914795,68.9147949 C186.247965,69.2854004 186.414551,69.8562826 186.414551,70.6274414 L186.414551,70.6274414 L186.414551,78.5 L189.143555,78.5 L189.143555,70.4702148 C189.098633,67.5727539 187.810872,66.1240234 185.280273,66.1240234 C183.820312,66.1240234 182.641113,66.6668294 181.742676,67.7524414 L181.742676,67.7524414 L181.664062,66.3486328 L179.092285,66.3486328 L179.092285,78.5 L181.821289,78.5 Z M197.218262,72.6489258 L197.218262,70.4477539 L191.322266,70.4477539 L191.322266,72.6489258 L197.218262,72.6489258 Z M205.304199,78.7246094 C207.093587,78.7246094 208.510498,78.3221842 209.554932,77.517334 C210.599365,76.7124837 211.121582,75.6287435 211.121582,74.2661133 C211.121582,73.4275716 210.941895,72.6957194 210.58252,72.0705566 C210.223145,71.4453939 209.657878,70.8913574 208.886719,70.4084473 C208.11556,69.9255371 207.093587,69.4950358 205.820801,69.1169434 C204.548014,68.7388509 203.634603,68.349528 203.080566,67.9489746 C202.52653,67.5484212 202.249512,67.0486654 202.249512,66.449707 C202.249512,65.738444 202.505941,65.1844076 203.018799,64.7875977 C203.531657,64.3907878 204.252279,64.1923828 205.180664,64.1923828 C206.176432,64.1923828 206.941976,64.4338379 207.477295,64.916748 C208.012614,65.3996582 208.280273,66.0678711 208.280273,66.9213867 L208.280273,66.9213867 L211.110352,66.9213867 C211.110352,65.9780273 210.855794,65.1188965 210.34668,64.3439941 C209.837565,63.5690918 209.137533,62.9720052 208.246582,62.5527344 C207.355632,62.1334635 206.341146,61.9238281 205.203125,61.9238281 C203.488607,61.9238281 202.094157,62.3505859 201.019775,63.2041016 C199.945394,64.0576172 199.408203,65.1432292 199.408203,66.4609375 C199.408203,67.9658203 200.153158,69.1861979 201.643066,70.1220703 C202.421712,70.608724 203.469889,71.0504557 204.787598,71.4472656 C206.105306,71.8440755 207.016846,72.2371419 207.522217,72.6264648 C208.027588,73.0157878 208.280273,73.5698242 208.280273,74.2885742 C208.280273,74.9474284 208.031331,75.4771322 207.533447,75.8776855 C207.035563,76.2782389 206.29248,76.4785156 205.304199,76.4785156 C204.158691,76.4785156 203.278971,76.2239583 202.665039,75.7148438 C202.051107,75.2057292 201.744141,74.4869792 201.744141,73.5585938 L201.744141,73.5585938 L198.902832,73.5585938 C198.902832,74.5843099 199.177979,75.4827474 199.728271,76.2539062 C200.278564,77.0250651 201.049723,77.6296387 202.041748,78.067627 C203.033773,78.5056152 204.121257,78.7246094 205.304199,78.7246094 Z M214.378418,83.4077148 C216.152832,83.4077148 217.410645,82.3857422 218.151855,80.3417969 L218.151855,80.3417969 L222.980957,66.3486328 L220.072266,66.3486328 L217.601562,74.5917969 L215.029785,66.3486328 L212.087402,66.3486328 L216.35498,78.4438477 L215.961914,79.4882812 C215.759766,80.0797526 215.484619,80.5008952 215.136475,80.751709 C214.78833,81.0025228 214.269857,81.1279297 213.581055,81.1279297 L213.581055,81.1279297 L213.064453,81.0942383 L213.064453,83.2055664 C213.54362,83.340332 213.981608,83.4077148 214.378418,83.4077148 Z M229.124023,78.7246094 C230.591471,78.7246094 231.778158,78.3858236 232.684082,77.708252 C233.590007,77.0306803 234.042969,76.1453451 234.042969,75.0522461 C234.042969,74.4008789 233.895101,73.8468424 233.599365,73.3901367 C233.30363,72.933431 232.850667,72.5422363 232.240479,72.2165527 C231.63029,71.8908691 230.789876,71.6101074 229.719238,71.3742676 C228.6486,71.1384277 227.937337,70.9044596 227.585449,70.6723633 C227.233561,70.4402669 227.057617,70.1145833 227.057617,69.6953125 C227.057617,69.2311198 227.246663,68.8605143 227.624756,68.5834961 C228.002848,68.3064779 228.491374,68.1679688 229.090332,68.1679688 C229.734212,68.1679688 230.250814,68.342041 230.640137,68.6901855 C231.02946,69.0383301 231.224121,69.4744466 231.224121,69.9985352 L231.224121,69.9985352 L233.953125,69.9985352 C233.953125,68.8530273 233.505778,67.9208984 232.611084,67.2021484 C231.71639,66.4833984 230.542806,66.1240234 229.090332,66.1240234 C227.727702,66.1240234 226.604655,66.4759115 225.721191,67.1796875 C224.837728,67.8834635 224.395996,68.7594401 224.395996,69.8076172 C224.395996,71.0579427 225.077311,72.0125326 226.439941,72.6713867 C227.061361,72.9708659 227.836263,73.2179362 228.764648,73.4125977 C229.693034,73.6072591 230.357503,73.8318685 230.758057,74.0864258 C231.15861,74.3409831 231.358887,74.7115885 231.358887,75.1982422 C231.358887,75.639974 231.171712,75.9974772 230.797363,76.270752 C230.423014,76.5440267 229.876465,76.6806641 229.157715,76.6806641 C228.416504,76.6806641 227.821289,76.5065918 227.37207,76.1584473 C226.922852,75.8103027 226.679525,75.3142904 226.64209,74.6704102 L226.64209,74.6704102 L223.991699,74.6704102 C223.991699,75.3966471 224.208822,76.0742188 224.643066,76.703125 C225.077311,77.3320312 225.683757,77.8261719 226.462402,78.1855469 C227.241048,78.5449219 228.128255,78.7246094 229.124023,78.7246094 Z M240.253418,78.7246094 C240.829915,78.7246094 241.428874,78.6385091 242.050293,78.4663086 L242.050293,78.4663086 L242.050293,76.3549805 C241.728353,76.4298503 241.410156,76.4672852 241.095703,76.4672852 C240.624023,76.4672852 240.296468,76.3643392 240.113037,76.1584473 C239.929606,75.9525553 239.837891,75.617513 239.837891,75.1533203 L239.837891,75.1533203 L239.837891,68.3701172 L241.98291,68.3701172 L241.98291,66.3486328 L239.837891,66.3486328 L239.837891,63.3950195 L237.108887,63.3950195 L237.108887,66.3486328 L235.109863,66.3486328 L235.109863,68.3701172 L237.108887,68.3701172 L237.108887,75.2543945 C237.108887,77.5678711 238.157064,78.7246094 240.253418,78.7246094 Z M249.41748,78.7246094 C250.428223,78.7246094 251.339762,78.5243327 252.1521,78.1237793 C252.964437,77.7232259 253.613932,77.1598307 254.100586,76.4335938 L254.100586,76.4335938 L252.629395,75.0297852 C251.843262,76.0405273 250.825033,76.5458984 249.574707,76.5458984 C248.683757,76.5458984 247.944417,76.2539062 247.356689,75.6699219 C246.768962,75.0859375 246.433919,74.2923177 246.351562,73.2890625 L246.351562,73.2890625 L254.291504,73.2890625 L254.291504,72.1884766 C254.291504,70.2568359 253.840413,68.7631836 252.938232,67.7075195 C252.036051,66.6518555 250.75765,66.1240234 249.103027,66.1240234 C248.062337,66.1240234 247.118978,66.3898112 246.272949,66.9213867 C245.426921,67.4529622 244.769938,68.1960449 244.302002,69.1506348 C243.834066,70.1052246 243.600098,71.1889648 243.600098,72.4018555 L243.600098,72.4018555 L243.600098,72.7387695 C243.600098,74.5506185 244.137288,76.0012207 245.21167,77.0905762 C246.286051,78.1799316 247.687988,78.7246094 249.41748,78.7246094 Z M251.596191,71.2900391 L246.396484,71.2900391 C246.523763,70.3541667 246.817627,69.6241862 247.278076,69.1000977 C247.738525,68.5760091 248.343099,68.3139648 249.091797,68.3139648 C249.847982,68.3139648 250.439453,68.5479329 250.866211,69.0158691 C251.292969,69.4838053 251.536296,70.1744792 251.596191,71.0878906 L251.596191,71.0878906 L251.596191,71.2900391 Z M259.131836,78.5 L259.131836,69.6953125 C259.588542,68.804362 260.363444,68.3588867 261.456543,68.3588867 C262.879069,68.3588867 263.609049,69.0738932 263.646484,70.5039062 L263.646484,70.5039062 L263.646484,78.5 L266.375488,78.5 L266.364258,70.1669922 C266.521484,69.6279297 266.796631,69.1918132 267.189697,68.8586426 C267.582764,68.525472 268.090007,68.3588867 268.711426,68.3588867 C269.490072,68.3588867 270.047852,68.5385742 270.384766,68.8979492 C270.72168,69.2573242 270.890137,69.8225911 270.890137,70.59375 L270.890137,70.59375 L270.890137,78.5 L273.619141,78.5 L273.619141,70.5151367 C273.604167,69.0701497 273.269124,67.9770508 272.614014,67.2358398 C271.958903,66.4946289 270.961263,66.1240234 269.621094,66.1240234 C268.01888,66.1240234 266.776042,66.7454427 265.892578,67.9882812 C265.29362,66.7454427 264.181803,66.1240234 262.557129,66.1240234 C261.074707,66.1240234 259.906738,66.6219076 259.053223,67.6176758 L259.053223,67.6176758 L258.974609,66.3486328 L256.402832,66.3486328 L256.402832,78.5 L259.131836,78.5 Z" id="Storyblok’sDesign-System" fill="#AFAFAF"></path>
                </g>
            </g>
        </g>
    </g>
</svg>